<svg xmlns="http://www.w3.org/2000/svg" viewBox="0 0 20 20"><title>picture</title><g id="Слой_2" data-name="Слой 2"><g id="Слой_1-2" data-name="Слой 1"><path d="M3,2A1,1,0,0,0,2,3V17a1,1,0,0,0,1,1H17a1,1,0,0,0,1-1V3a1,1,0,0,0-1-1ZM0,3A3,3,0,0,1,3,0H17a3,3,0,0,1,3,3V17a3,3,0,0,1-3,3H3a3,3,0,0,1-3-3Z"/><path d="M6.5,6a.5.5,0,1,0,.5.5A.5.5,0,0,0,6.5,6ZM4,6.5A2.5,2.5,0,1,1,6.5,9,2.5,2.5,0,0,1,4,6.5Z"/><path d="M13.36,7.23a1,1,0,0,1,1.36.07l4.39,4.5a1,1,0,1,1-1.43,1.4L13.93,9.36,2.64,18.77a1,1,0,1,1-1.28-1.54Z"/></g></g></svg>