<svg xmlns="http://www.w3.org/2000/svg" viewBox="0 0 121 91"><title>quote</title><g id="Слой_2" data-name="Слой 2"><g id="Слой_1-2" data-name="Слой 1"><path d="M10.74,83.16C3.75,75.88,0,67.71,0,54.48,0,31.19,16.67,10.32,40.92,0L47,9.17c-22.63,12-27.06,27.58-28.82,37.4A24.67,24.67,0,0,1,31.25,44.5c12.24,1.11,21.89,11,21.89,23.21a23,23,0,0,1-7,16.47A24,24,0,0,1,29.39,91,26.55,26.55,0,0,1,10.74,83.16Zm67.86,0c-7-7.28-10.74-15.45-10.74-28.68,0-23.29,16.67-44.16,40.92-54.48l6.06,9.17C92.21,21.17,87.78,36.75,86,46.57A24.67,24.67,0,0,1,99.11,44.5c12.24,1.11,21.89,11,21.89,23.21a23,23,0,0,1-7,16.47A24,24,0,0,1,97.25,91,26.55,26.55,0,0,1,78.6,83.16Z"/></g></g></svg>