<svg width="333" height="45" viewBox="0 0 333 45" fill="none" xmlns="http://www.w3.org/2000/svg">
<path d="M5.57812 40V34.1816L1.79883 40H0.960938V32.4414H1.92188V38.2598L5.70117 32.4414H6.53906V40H5.57812Z" fill="#0C1427" fill-opacity="0.5"/>
<path d="M8.52188 34.4805C8.55313 34.1836 8.6293 33.9062 8.75039 33.6484C8.87539 33.3867 9.03945 33.1641 9.24258 32.9805C9.44961 32.7969 9.69375 32.6523 9.975 32.5469C10.2602 32.4375 10.5746 32.3828 10.9184 32.3828C11.2621 32.3828 11.5785 32.4395 11.8676 32.5527C12.1566 32.6621 12.4027 32.8125 12.6059 33.0039C12.809 33.1953 12.9691 33.418 13.0863 33.6719C13.2035 33.9219 13.2621 34.1914 13.2621 34.4805C13.2621 34.7539 13.2074 34.9883 13.098 35.1836C12.9887 35.3789 12.8715 35.541 12.7465 35.6699C12.602 35.8145 12.434 35.9375 12.2426 36.0391C12.473 36.1445 12.6801 36.2812 12.8637 36.4492C13.0238 36.5938 13.1703 36.7871 13.3031 37.0293C13.4359 37.2676 13.5023 37.5586 13.5023 37.9023C13.5023 38.1914 13.4418 38.4648 13.3207 38.7227C13.1996 38.9805 13.0258 39.209 12.7992 39.4082C12.5766 39.6035 12.3109 39.7617 12.0023 39.8828C11.6977 40 11.3578 40.0586 10.9828 40.0586C10.6078 40.0586 10.2699 40.0059 9.96914 39.9004C9.66836 39.791 9.40859 39.6445 9.18984 39.4609C8.975 39.2773 8.80117 39.0586 8.66836 38.8047C8.53555 38.5469 8.4457 38.2656 8.39883 37.9609H9.35977C9.42227 38.3203 9.58828 38.6211 9.85781 38.8633C10.1273 39.1016 10.5023 39.2207 10.9828 39.2207C11.4633 39.2207 11.8422 39.0918 12.1195 38.834C12.4008 38.5723 12.5414 38.2617 12.5414 37.9023C12.5414 37.543 12.4008 37.2324 12.1195 36.9707C11.8383 36.709 11.4594 36.5781 10.9828 36.5781H10.4262V35.7402H10.9184C11.3441 35.7402 11.6801 35.6211 11.9262 35.3828C12.1762 35.1406 12.3012 34.8398 12.3012 34.4805C12.3012 34.1211 12.1762 33.8223 11.9262 33.584C11.6801 33.3418 11.3441 33.2207 10.9184 33.2207C10.4926 33.2207 10.1547 33.3418 9.90469 33.584C9.65469 33.8223 9.51406 34.1211 9.48281 34.4805H8.52188Z" fill="#0C1427" fill-opacity="0.5"/>
<path d="M21.6023 39.1621V41.5586H20.7V40H15.4852V41.5586H14.5828V39.1621H15.0047C15.1414 39.0566 15.2645 38.9316 15.3738 38.7871C15.4715 38.6582 15.5652 38.502 15.6551 38.3184C15.7488 38.1348 15.8113 37.916 15.8426 37.6621L16.4402 32.4414H20.7645V39.1621H21.6023ZM19.8035 33.2793H17.3191L16.8035 37.6621C16.7723 37.9199 16.7215 38.1406 16.6512 38.3242C16.5848 38.5039 16.5184 38.6582 16.452 38.7871C16.3738 38.9316 16.2898 39.0566 16.2 39.1621H19.8035V33.2793Z" fill="#0C1427" fill-opacity="0.5"/>
<path d="M27.3059 38.1426H24.1887L23.468 40H22.4484L25.3312 32.4414H26.1691L29.0461 40H28.0266L27.3059 38.1426ZM24.4875 37.2988H27.007L25.7473 34L24.4875 37.2988Z" fill="#0C1427" fill-opacity="0.5"/>
<path d="M35.5289 39.1621V40H30.607V32.4414H35.4059V33.2793H31.568V35.6816H35.107V36.5195H31.568V39.1621H35.5289Z" fill="#0C1427" fill-opacity="0.5"/>
<path d="M42.4277 33.2793H40.1484V40H39.1875V33.2793H36.9082V32.4414H42.4277V33.2793Z" fill="#0C1427" fill-opacity="0.5"/>
<path d="M46.9828 33.2207C46.6547 33.2207 46.3344 33.2949 46.0219 33.4434C45.7094 33.5918 45.434 33.7988 45.1957 34.0645C44.9574 34.334 44.766 34.6523 44.6215 35.0195C44.477 35.3867 44.4047 35.7871 44.4047 36.2207C44.4047 36.6543 44.477 37.0547 44.6215 37.4219C44.766 37.7891 44.9574 38.1055 45.1957 38.3711C45.434 38.6406 45.7094 38.8496 46.0219 38.998C46.3344 39.1465 46.6547 39.2207 46.9828 39.2207C47.2797 39.2207 47.5512 39.1738 47.7973 39.0801C48.0434 38.9863 48.2621 38.8633 48.4535 38.7109C48.641 38.5547 48.7973 38.3711 48.9223 38.1602C49.0473 37.9492 49.141 37.7227 49.2035 37.4805H50.223C50.1176 37.8398 49.9691 38.1758 49.7777 38.4883C49.5863 38.8008 49.352 39.0742 49.0746 39.3086C48.7973 39.543 48.4848 39.7266 48.1371 39.8594C47.7855 39.9922 47.4008 40.0586 46.9828 40.0586C46.518 40.0586 46.0727 39.9609 45.6469 39.7656C45.2172 39.5703 44.8402 39.2988 44.516 38.9512C44.1918 38.6035 43.932 38.1973 43.7367 37.7324C43.5414 37.2676 43.4437 36.7637 43.4437 36.2207C43.4437 35.6855 43.5414 35.1836 43.7367 34.7148C43.932 34.2461 44.1918 33.8379 44.516 33.4902C44.8402 33.1426 45.2172 32.8711 45.6469 32.6758C46.0766 32.4805 46.5219 32.3828 46.9828 32.3828C47.3891 32.3828 47.7641 32.4473 48.1078 32.5762C48.4477 32.709 48.7523 32.8945 49.0219 33.1328C49.2953 33.3672 49.5277 33.6406 49.7191 33.9531C49.9105 34.2656 50.059 34.6016 50.1645 34.9609H49.1449C49.0824 34.7227 48.9887 34.4961 48.8637 34.2812C48.7387 34.0703 48.5844 33.8867 48.4008 33.7305C48.2172 33.5742 48.0062 33.4492 47.768 33.3555C47.5336 33.2656 47.2719 33.2207 46.9828 33.2207Z" fill="#0C1427" fill-opacity="0.5"/>
<path d="M52.6805 40H51.6023L53.5184 36.8184C53.2059 36.7207 52.9266 36.5781 52.6805 36.3906C52.4734 36.2305 52.282 36.0117 52.1063 35.7344C51.9305 35.457 51.8426 35.0996 51.8426 34.6621C51.8426 34.3652 51.9012 34.082 52.0184 33.8125C52.1395 33.5391 52.3016 33.3027 52.5047 33.1035C52.7117 32.9004 52.9539 32.7402 53.2313 32.623C53.5125 32.502 53.8094 32.4414 54.1219 32.4414H56.9402V40H55.9793V36.8828H54.5496L52.6805 40ZM55.9793 33.2793H54.1219C53.9383 33.2793 53.7664 33.3164 53.6063 33.3906C53.4461 33.4609 53.3055 33.5586 53.1844 33.6836C53.0633 33.8047 52.9676 33.9492 52.8973 34.1172C52.8309 34.2852 52.7977 34.4668 52.7977 34.6621C52.7977 34.8535 52.8309 35.0332 52.8973 35.2012C52.9676 35.3691 53.0633 35.5156 53.1844 35.6406C53.3055 35.7617 53.4461 35.8594 53.6063 35.9336C53.7664 36.0039 53.9383 36.0391 54.1219 36.0391H55.9793V33.2793Z" fill="#0C1427" fill-opacity="0.5"/>
<path d="M65.7633 33.2207C65.4352 33.2207 65.1148 33.2949 64.8023 33.4434C64.4898 33.5918 64.2145 33.7988 63.9762 34.0645C63.7379 34.334 63.5465 34.6523 63.402 35.0195C63.2574 35.3867 63.1852 35.7871 63.1852 36.2207C63.1852 36.6543 63.2574 37.0547 63.402 37.4219C63.5465 37.7891 63.7379 38.1055 63.9762 38.3711C64.2145 38.6406 64.4898 38.8496 64.8023 38.998C65.1148 39.1465 65.4352 39.2207 65.7633 39.2207C66.0602 39.2207 66.3316 39.1738 66.5777 39.0801C66.8238 38.9863 67.0426 38.8633 67.234 38.7109C67.4215 38.5547 67.5777 38.3711 67.7027 38.1602C67.8277 37.9492 67.9215 37.7227 67.984 37.4805H69.0035C68.898 37.8398 68.7496 38.1758 68.5582 38.4883C68.3668 38.8008 68.1324 39.0742 67.8551 39.3086C67.5777 39.543 67.2652 39.7266 66.9176 39.8594C66.566 39.9922 66.1813 40.0586 65.7633 40.0586C65.2984 40.0586 64.8531 39.9609 64.4273 39.7656C63.9977 39.5703 63.6207 39.2988 63.2965 38.9512C62.9723 38.6035 62.7125 38.1973 62.5172 37.7324C62.3219 37.2676 62.2242 36.7637 62.2242 36.2207C62.2242 35.6855 62.3219 35.1836 62.5172 34.7148C62.7125 34.2461 62.9723 33.8379 63.2965 33.4902C63.6207 33.1426 63.9977 32.8711 64.4273 32.6758C64.857 32.4805 65.3023 32.3828 65.7633 32.3828C66.1695 32.3828 66.5445 32.4473 66.8883 32.5762C67.2281 32.709 67.5328 32.8945 67.8023 33.1328C68.0758 33.3672 68.3082 33.6406 68.4996 33.9531C68.691 34.2656 68.8395 34.6016 68.9449 34.9609H67.9254C67.8629 34.7227 67.7691 34.4961 67.6441 34.2812C67.5191 34.0703 67.3648 33.8867 67.1813 33.7305C66.9977 33.5742 66.7867 33.4492 66.5484 33.3555C66.3141 33.2656 66.0523 33.2207 65.7633 33.2207Z" fill="#0C1427" fill-opacity="0.5"/>
<path d="M75.8988 32.4414V40H74.9379V33.7598L73.8598 34.4805L73.4379 33.7598L75.3012 32.4414H75.8988Z" fill="#0C1427" fill-opacity="0.5"/>
<path d="M80.3953 32.3828C80.7547 32.3828 81.0906 32.4492 81.4031 32.582C81.7156 32.7109 81.9891 32.8945 82.2234 33.1328C82.4578 33.3672 82.6414 33.6406 82.7742 33.9531C82.907 34.2656 82.9734 34.6016 82.9734 34.9609C82.9734 35.1992 82.9383 35.4297 82.868 35.6523C82.8016 35.8711 82.7254 36.0605 82.6395 36.2207C82.5418 36.4199 82.4324 36.5996 82.3113 36.7598L80.1551 40H79.1355L80.8113 37.4805C80.7723 37.4961 80.7332 37.5078 80.6941 37.5156C80.6551 37.5234 80.6102 37.5293 80.5594 37.5332C80.5125 37.5371 80.4578 37.5391 80.3953 37.5391C80.0359 37.5391 79.7 37.4746 79.3875 37.3457C79.075 37.2129 78.7996 37.0293 78.5613 36.7949C78.327 36.5566 78.1434 36.2812 78.0105 35.9688C77.8777 35.6562 77.8113 35.3203 77.8113 34.9609C77.8113 34.6016 77.8777 34.2656 78.0105 33.9531C78.1434 33.6406 78.327 33.3672 78.5613 33.1328C78.7996 32.8945 79.075 32.7109 79.3875 32.582C79.7 32.4492 80.0359 32.3828 80.3953 32.3828ZM82.0125 34.9609C82.0125 34.7148 81.9695 34.4844 81.8836 34.2695C81.8016 34.0508 81.6863 33.8652 81.5379 33.7129C81.3895 33.5605 81.2176 33.4414 81.0223 33.3555C80.827 33.2656 80.618 33.2207 80.3953 33.2207C80.1727 33.2207 79.9617 33.2637 79.7625 33.3496C79.5672 33.4316 79.3953 33.5508 79.2469 33.707C79.0984 33.8633 78.9812 34.0469 78.8953 34.2578C78.8133 34.4688 78.7723 34.7031 78.7723 34.9609C78.7723 35.1992 78.8133 35.4219 78.8953 35.6289C78.9812 35.832 79.0984 36.0098 79.2469 36.1621C79.3953 36.3145 79.5672 36.4336 79.7625 36.5195C79.9578 36.6016 80.1687 36.6426 80.3953 36.6426C80.618 36.6426 80.827 36.6016 81.0223 36.5195C81.2176 36.4336 81.3895 36.3145 81.5379 36.1621C81.6863 36.0098 81.8016 35.832 81.8836 35.6289C81.9695 35.4219 82.0125 35.1992 82.0125 34.9609Z" fill="#0C1427" fill-opacity="0.5"/>
<path d="M86.8781 40.0586C86.5188 40.0586 86.1828 39.9941 85.8703 39.8652C85.5578 39.7324 85.2824 39.5488 85.0441 39.3145C84.8098 39.0762 84.6262 38.8008 84.4934 38.4883C84.3645 38.1758 84.3 37.8398 84.3 37.4805C84.3 37.2422 84.3313 37.0156 84.3938 36.8008C84.4563 36.582 84.5324 36.3887 84.6223 36.2207C84.7199 36.0293 84.8313 35.8496 84.9563 35.6816L87.1184 32.4414H88.1379L86.4563 34.9609C86.4953 34.9531 86.5363 34.9453 86.5793 34.9375C86.6184 34.9297 86.6613 34.9219 86.7082 34.9141C86.759 34.9062 86.8156 34.9023 86.8781 34.9023C87.2375 34.9023 87.5734 34.9688 87.8859 35.1016C88.1984 35.2305 88.4719 35.4141 88.7063 35.6523C88.9445 35.8867 89.1281 36.1602 89.257 36.4727C89.3898 36.7852 89.4563 37.1211 89.4563 37.4805C89.4563 37.8398 89.3898 38.1758 89.257 38.4883C89.1281 38.8008 88.9445 39.0762 88.7063 39.3145C88.4719 39.5488 88.1984 39.7324 87.8859 39.8652C87.5734 39.9941 87.2375 40.0586 86.8781 40.0586ZM85.2609 37.4805C85.2609 37.7383 85.302 37.9727 85.384 38.1836C85.4699 38.3945 85.5852 38.5762 85.7297 38.7285C85.8781 38.8809 86.05 39.002 86.2453 39.0918C86.4445 39.1777 86.6555 39.2207 86.8781 39.2207C87.1008 39.2207 87.3098 39.1797 87.5051 39.0977C87.7043 39.0117 87.8762 38.8906 88.0207 38.7344C88.1691 38.5781 88.2844 38.3945 88.3664 38.1836C88.4523 37.9688 88.4953 37.7344 88.4953 37.4805C88.4953 37.2422 88.4523 37.0215 88.3664 36.8184C88.2844 36.6113 88.1691 36.4316 88.0207 36.2793C87.8762 36.127 87.7043 36.0098 87.5051 35.9277C87.3098 35.8418 87.1008 35.7988 86.8781 35.7988C86.6555 35.7988 86.4445 35.8418 86.2453 35.9277C86.05 36.0098 85.8781 36.127 85.7297 36.2793C85.5852 36.4316 85.4699 36.6113 85.384 36.8184C85.302 37.0215 85.2609 37.2422 85.2609 37.4805Z" fill="#0C1427" fill-opacity="0.5"/>
<path d="M91.8023 36.2207C91.8023 36.7324 91.857 37.1758 91.9664 37.5508C92.0797 37.9258 92.2281 38.2383 92.4117 38.4883C92.5953 38.7344 92.8043 38.918 93.0387 39.0391C93.277 39.1602 93.523 39.2207 93.777 39.2207C94.0348 39.2207 94.2809 39.1602 94.5152 39.0391C94.7535 38.918 94.9645 38.7344 95.148 38.4883C95.3316 38.2383 95.4781 37.9258 95.5875 37.5508C95.7008 37.1758 95.7574 36.7324 95.7574 36.2207C95.7574 35.709 95.7008 35.2656 95.5875 34.8906C95.4781 34.5117 95.3316 34.1992 95.148 33.9531C94.9645 33.7031 94.7535 33.5195 94.5152 33.4023C94.2809 33.2812 94.0348 33.2207 93.777 33.2207C93.5191 33.2207 93.273 33.2812 93.0387 33.4023C92.8043 33.5195 92.5953 33.7031 92.4117 33.9531C92.2281 34.1992 92.0797 34.5117 91.9664 34.8906C91.857 35.2656 91.8023 35.709 91.8023 36.2207ZM96.7184 36.2207C96.7184 36.8379 96.6383 37.3848 96.4781 37.8613C96.318 38.334 96.1012 38.7344 95.8277 39.0625C95.5582 39.3906 95.2477 39.6387 94.8961 39.8066C94.5445 39.9746 94.1715 40.0586 93.777 40.0586C93.3863 40.0586 93.0133 39.9746 92.6578 39.8066C92.3023 39.6387 91.9898 39.3906 91.7203 39.0625C91.4547 38.7344 91.2418 38.334 91.0816 37.8613C90.9215 37.3848 90.8414 36.8379 90.8414 36.2207C90.8414 35.6035 90.9215 35.0566 91.0816 34.5801C91.2418 34.1035 91.4547 33.7031 91.7203 33.3789C91.9898 33.0508 92.3023 32.8027 92.6578 32.6348C93.0133 32.4668 93.3863 32.3828 93.777 32.3828C94.1676 32.3828 94.5387 32.4668 94.8902 32.6348C95.2457 32.8027 95.5582 33.0508 95.8277 33.3789C96.1012 33.7031 96.318 34.1035 96.4781 34.5801C96.6383 35.0566 96.7184 35.6035 96.7184 36.2207Z" fill="#0C1427" fill-opacity="0.5"/>
<path d="M102.834 33.2793V40H101.873V32.4414H106.192V33.2793H102.834Z" fill="#0C1427" fill-opacity="0.5"/>
<path d="M108.052 36.2207C108.052 36.6543 108.122 37.0547 108.262 37.4219C108.407 37.7891 108.6 38.1055 108.843 38.3711C109.081 38.6406 109.356 38.8496 109.669 38.998C109.981 39.1465 110.302 39.2207 110.63 39.2207C110.958 39.2207 111.278 39.1465 111.591 38.998C111.903 38.8496 112.179 38.6406 112.417 38.3711C112.655 38.1016 112.846 37.7852 112.991 37.4219C113.136 37.0547 113.208 36.6543 113.208 36.2207C113.208 35.7871 113.136 35.3867 112.991 35.0195C112.846 34.6523 112.655 34.334 112.417 34.0645C112.179 33.7949 111.903 33.5879 111.591 33.4434C111.278 33.2949 110.958 33.2207 110.63 33.2207C110.302 33.2207 109.981 33.2949 109.669 33.4434C109.356 33.5918 109.081 33.7988 108.843 34.0645C108.604 34.334 108.411 34.6523 108.262 35.0195C108.122 35.3867 108.052 35.7871 108.052 36.2207ZM114.169 36.2207C114.169 36.7637 114.071 37.2676 113.876 37.7324C113.68 38.1973 113.421 38.6035 113.096 38.9512C112.772 39.2988 112.395 39.5703 111.966 39.7656C111.536 39.9609 111.091 40.0586 110.63 40.0586C110.165 40.0586 109.718 39.9609 109.288 39.7656C108.858 39.5703 108.483 39.2988 108.163 38.9512C107.839 38.6035 107.579 38.1973 107.384 37.7324C107.188 37.2676 107.091 36.7637 107.091 36.2207C107.091 35.6855 107.188 35.1836 107.384 34.7148C107.579 34.2461 107.839 33.8379 108.163 33.4902C108.487 33.1426 108.862 32.8711 109.288 32.6758C109.718 32.4805 110.165 32.3828 110.63 32.3828C111.095 32.3828 111.54 32.4805 111.966 32.6758C112.395 32.8711 112.772 33.1426 113.096 33.4902C113.421 33.8379 113.68 34.2461 113.876 34.7148C114.071 35.1836 114.169 35.6855 114.169 36.2207Z" fill="#0C1427" fill-opacity="0.5"/>
<path d="M122.093 39.1621V41.5586H121.191V40H115.976V41.5586H115.073V39.1621H115.495C115.632 39.0566 115.755 38.9316 115.864 38.7871C115.962 38.6582 116.056 38.502 116.146 38.3184C116.239 38.1348 116.302 37.916 116.333 37.6621L116.931 32.4414H121.255V39.1621H122.093ZM120.294 33.2793H117.81L117.294 37.6621C117.263 37.9199 117.212 38.1406 117.142 38.3242C117.075 38.5039 117.009 38.6582 116.943 38.7871C116.864 38.9316 116.78 39.0566 116.691 39.1621H120.294V33.2793Z" fill="#0C1427" fill-opacity="0.5"/>
<path d="M127.796 38.1426H124.679L123.959 40H122.939L125.822 32.4414H126.66L129.537 40H128.517L127.796 38.1426ZM124.978 37.2988H127.498L126.238 34L124.978 37.2988Z" fill="#0C1427" fill-opacity="0.5"/>
<path d="M1.07812 5.27268V22H5.52131V12.2642H5.65199L9.37642 21.8693H12.0554L15.7798 12.3295H15.9105V22H20.3537V5.27268H14.7017L10.8139 14.7471H10.6179L6.73011 5.27268H1.07812Z" fill="#0C1427"/>
<path d="M24.8059 5.27268V22H28.5956L34.6397 13.2116H34.7377V22H39.2789V5.27268H35.4238L29.4777 14.0284H29.3471V5.27268H24.8059Z" fill="#0C1427"/>
<path d="M43.727 22H48.2681V17.034H50.7838C54.598 17.034 57.1545 14.788 57.1545 11.186C57.1545 7.62496 54.6634 5.27268 50.9471 5.27268H43.727V22ZM48.2681 13.5056V8.8991H49.869C51.4617 8.8991 52.4173 9.74853 52.4173 11.186C52.4173 12.6154 51.4617 13.5056 49.869 13.5056H48.2681Z" fill="#0C1427"/>
<path d="M61.1207 22H65.6619V15.4659H71.6733V22H76.2145V5.27268H71.6733V11.8068H65.6619V5.27268H61.1207V22Z" fill="#0C1427"/>
<path d="M80.6707 5.27268V22H84.4605L90.5045 13.2116H90.6025V22H95.1437V5.27268H91.2886L85.3426 14.0284H85.2119V5.27268H80.6707Z" fill="#0C1427"/>
<path d="M99.5918 22H104.133V15.4659H110.144V22H114.686V5.27268H110.144V11.8068H104.133V5.27268H99.5918V22Z" fill="#0C1427"/>
<path d="M134.758 11.5454C134.399 7.39626 131.361 5.04399 127.146 5.04399C122.638 5.04399 119.076 8.04967 119.076 13.6363C119.076 19.1985 122.54 22.2286 127.146 22.2286C132.047 22.2286 134.53 18.8309 134.758 15.9886L130.152 15.9559C129.923 17.3853 128.91 18.2755 127.244 18.2755C125.031 18.2755 123.748 16.7073 123.748 13.6363C123.748 10.7286 124.99 8.99711 127.277 8.99711C129.025 8.99711 130.021 10.0262 130.152 11.5454H134.758Z" fill="#0C1427"/>
<path d="M149.426 22H155.127L148.397 13.3096L154.768 5.27268H149.05L144.248 11.5781H143.66V5.27268H139.119V22H143.66V15.2372H144.297L149.426 22Z" fill="#0C1427"/>
<path d="M158.646 5.27268V22H162.436L168.48 13.2116H168.578V22H173.119V5.27268H169.264L163.318 14.0284H163.187V5.27268H158.646Z" fill="#0C1427"/>
<path d="M177.567 5.27268V22H181.357L187.401 13.2116H187.499V22H192.04V5.27268H188.185L182.239 14.0284H182.108V5.27268H177.567ZM186.421 0.76416C186.413 1.48291 185.955 2.13632 184.787 2.13632C183.57 2.13632 183.113 1.45024 183.121 0.76416H180.312C180.303 2.88774 182.035 4.2599 184.787 4.2599C187.524 4.2599 189.255 2.88774 189.263 0.76416H186.421Z" fill="#0C1427"/>
<path d="M203.37 22H207.912V17.034H210.427C214.241 17.034 216.798 14.788 216.798 11.186C216.798 7.62496 214.307 5.27268 210.59 5.27268H203.37V22ZM207.912 13.5056V8.8991H209.512C211.105 8.8991 212.061 9.74853 212.061 11.186C212.061 12.6154 211.105 13.5056 209.512 13.5056H207.912Z" fill="#0C1427"/>
<path d="M223.02 22L223.984 18.7983H229.505L230.469 22H235.37L229.848 5.27268H223.641L218.12 22H223.02ZM225.013 15.4005L226.679 9.87922H226.81L228.476 15.4005H225.013Z" fill="#0C1427"/>
<path d="M239.281 22H245.521C249.735 22 252.545 19.713 252.545 16.3806C252.545 13.0483 249.735 10.892 245.521 10.892H243.822V8.93177H251.042V5.27268H239.281V22ZM243.822 18.4389V14.3551H245.521C247.154 14.3551 248.037 15.2045 248.037 16.348C248.037 17.5568 247.154 18.4389 245.521 18.4389H243.822Z" fill="#0C1427"/>
<path d="M272.655 13.6363C272.655 8.04967 269.061 5.04399 264.52 5.04399C259.946 5.04399 256.385 8.04967 256.385 13.6363C256.385 19.1903 259.946 22.2286 264.52 22.2286C269.061 22.2286 272.655 19.223 272.655 13.6363ZM267.983 13.6363C267.983 16.642 266.774 18.2755 264.52 18.2755C262.265 18.2755 261.057 16.642 261.057 13.6363C261.057 10.6306 262.265 8.99711 264.52 8.99711C266.774 8.99711 267.983 10.6306 267.983 13.6363Z" fill="#0C1427"/>
<path d="M278.068 5.27268V10.5326C278.06 14.4204 281.001 16.2826 285.419 16.2826C285.624 16.2826 286.93 16.2336 287.87 16.1356V22H292.28V5.27268H287.87V12.6807C287.004 12.7542 285.803 12.7869 285.419 12.7869C283.157 12.7869 282.446 12.1008 282.446 10.5326V5.27268H278.068Z" fill="#0C1427"/>
<path d="M297.706 5.27268V22H301.496L307.54 13.2116H307.638V22H312.179V5.27268H308.324L302.378 14.0284H302.247V5.27268H297.706Z" fill="#0C1427"/>
<path d="M316.627 5.27268V22H320.417L326.461 13.2116H326.559V22H331.1V5.27268H327.245L321.299 14.0284H321.169V5.27268H316.627ZM325.481 0.76416C325.473 1.48291 325.016 2.13632 323.848 2.13632C322.631 2.13632 322.173 1.45024 322.181 0.76416H319.372C319.364 2.88774 321.095 4.2599 323.848 4.2599C326.584 4.2599 328.315 2.88774 328.323 0.76416H325.481Z" fill="#0C1427"/>
</svg>
