<?xml version="1.0" encoding="utf-8"?><svg xmlns="http://www.w3.org/2000/svg" viewBox="0 0 20.01 20.01" width="20.01" height="20.01"><path d="M1.09 5.51a10.05 10.05 0 013.76-4A10.3 10.3 0 0110.2 0 9.88 9.88 0 0117 2.61l-2.89 2.86A5.59 5.59 0 0010.2 4a6.09 6.09 0 00-5.71 4.1 5.76 5.76 0 000 3.8A6.09 6.09 0 0010.2 16a6.23 6.23 0 003.46-.95A4.46 4.46 0 0015 13.76a4.67 4.67 0 00.71-1.71H10.2V8.18h9.61a10.86 10.86 0 01.19 2.05 9.65 9.65 0 01-3 7.35A9.91 9.91 0 0110.2 20a10.42 10.42 0 01-3.9-.76A10.23 10.23 0 013 17.07a9.91 9.91 0 01-2.22-3.24 9.78 9.78 0 01.31-8.32z"/></svg>