<?xml version="1.0" encoding="utf-8"?><svg xmlns="http://www.w3.org/2000/svg" viewBox="0 0 26 26" width="26" height="26"><path d="M13 9.1a3.89 3.89 0 102.76 1.14A3.91 3.91 0 0013 9.1zm0-2.6a6.49 6.49 0 11-4.6 1.9A6.51 6.51 0 0113 6.5zm8.45-.32A1.64 1.64 0 1121 5a1.58 1.58 0 01.48 1.15zM13 2.6c-3.22 0-3.74 0-5.24.08a6.83 6.83 0 00-2.34.43A3.81 3.81 0 004 4a3.61 3.61 0 00-.91 1.4 6.83 6.83 0 00-.43 2.34C2.61 9.2 2.6 9.7 2.6 13s0 3.74.08 5.24a6.72 6.72 0 00.43 2.33A3.77 3.77 0 004 22a3.77 3.77 0 001.4.91 6.88 6.88 0 002.34.43c1.44.07 1.94.08 5.24.08s3.74 0 5.24-.08a6.77 6.77 0 002.33-.43A3.77 3.77 0 0022 22a3.65 3.65 0 00.91-1.4 6.88 6.88 0 00.43-2.34c.07-1.44.08-1.94.08-5.24s0-3.74-.08-5.24a6.88 6.88 0 00-.43-2.34A3.73 3.73 0 0022 4a3.61 3.61 0 00-1.4-.91 6.88 6.88 0 00-2.34-.43C16.8 2.61 16.3 2.6 13 2.6zM13 0c3.53 0 4 0 5.36.08a9.45 9.45 0 013.15.6 6.34 6.34 0 012.31 1.5 6.45 6.45 0 011.5 2.31 9.45 9.45 0 01.6 3.15C26 9 26 9.47 26 13s0 4-.08 5.36a9.45 9.45 0 01-.6 3.15 6.62 6.62 0 01-3.81 3.81 9.45 9.45 0 01-3.15.6C17 26 16.53 26 13 26s-4 0-5.36-.08a9.57 9.57 0 01-3.16-.6 6.5 6.5 0 01-2.3-1.5 6.45 6.45 0 01-1.5-2.31 9.45 9.45 0 01-.6-3.15C0 17 0 16.53 0 13s0-4 .08-5.36a9.45 9.45 0 01.6-3.15 6.45 6.45 0 011.5-2.31 6.5 6.5 0 012.3-1.5 9.57 9.57 0 013.16-.6C9 0 9.47 0 13 0z"/></svg>