<?xml version="1.0" encoding="utf-8"?><svg xmlns="http://www.w3.org/2000/svg" viewBox="0 0 121 91" width="121" height="91"><g data-name="Слой 2"><path d="M10.74 83.16C3.75 75.88 0 67.71 0 54.48 0 31.19 16.67 10.32 40.92 0L47 9.17c-22.63 12-27.06 27.58-28.82 37.4a24.67 24.67 0 0113.07-2.07c12.24 1.11 21.89 11 21.89 23.21a23 23 0 01-7 16.47A24 24 0 0129.39 91a26.55 26.55 0 01-18.65-7.84zm67.86 0c-7-7.28-10.74-15.45-10.74-28.68 0-23.29 16.67-44.16 40.92-54.48l6.06 9.17c-22.63 12-27.06 27.58-28.84 37.4a24.67 24.67 0 0113.11-2.07c12.24 1.11 21.89 11 21.89 23.21a23 23 0 01-7 16.47A24 24 0 0197.25 91a26.55 26.55 0 01-18.65-7.84z" data-name="Слой 1"/></g></svg>