<?xml version="1.0" encoding="utf-8"?><svg xmlns="http://www.w3.org/2000/svg" viewBox="0 0 20 16" width="20" height="16"><path d="M20 1.9a8 8 0 01-2.36.63A4 4 0 0019.45.3a8.41 8.41 0 01-2.61 1A4.15 4.15 0 0014.51.05a4.19 4.19 0 00-2.6.43 4.11 4.11 0 00-1.81 1.9A4 4 0 009.85 5a11.85 11.85 0 01-4.68-1.26 11.63 11.63 0 01-3.78-3 4 4 0 001.27 5.39 4.17 4.17 0 01-1.86-.5 4 4 0 00.93 2.56A4.16 4.16 0 004.1 9.64a4.32 4.32 0 01-1.86.07 4.07 4.07 0 001.46 2 4.13 4.13 0 002.37.79 8.1 8.1 0 01-2.86 1.43 8.5 8.5 0 01-3.21.26A11.83 11.83 0 006.29 16 11.5 11.5 0 0018 4.51v-.52a8.14 8.14 0 002-2.09z"/></svg>