<?xml version="1.0" encoding="utf-8"?><svg viewBox="0 0 121 106" xmlns="http://www.w3.org/2000/svg" xmlns:xlink="http://www.w3.org/1999/xlink"><style>:root>svg{display:none}:root>svg:target{display:block}</style><svg viewBox="0 0 12 6" id="arrow" xmlns="http://www.w3.org/2000/svg"><path d="M11.8.18a.54.54 0 010 .84l-5.33 4.8a.7.7 0 01-.94 0L.2 1a.54.54 0 010-.82.7.7 0 01.94 0L6 4.55 10.86.18a.7.7 0 01.94 0z"/></svg><svg viewBox="0 0 12 6" id="arrow-select" xmlns="http://www.w3.org/2000/svg"><path d="M11.8.18a.54.54 0 010 .84l-5.33 4.8a.7.7 0 01-.94 0L.2 1a.54.54 0 010-.82.7.7 0 01.94 0L6 4.55 10.86.18a.7.7 0 01.94 0z" fill="#0C1427"/></svg><svg viewBox="0 0 26 26" id="close" xmlns="http://www.w3.org/2000/svg"><path d="M1 26a1 1 0 01-.71-.29 1 1 0 010-1.42l24-24a1 1 0 111.42 1.42l-24 24A1 1 0 011 26z"/><path d="M25 26a1 1 0 01-.71-.29l-24-24A1 1 0 011.71.29l24 24a1 1 0 010 1.42A1 1 0 0125 26z"/></svg><svg viewBox="0 0 22 16" id="eye" xmlns="http://www.w3.org/2000/svg"><path d="M11 0C6 0 1.7 3.3 0 8c1.7 4.7 6 8 11 8s9.3-3.3 11-8c-1.7-4.7-6-8-11-8zm0 13.3c-2.8 0-5-2.4-5-5.3s2.2-5.3 5-5.3 5 2.4 5 5.3-2.2 5.3-5 5.3zm0-8.5C9.3 4.8 8 6.2 8 8s1.3 3.2 3 3.2 3-1.4 3-3.2-1.3-3.2-3-3.2z"/></svg><svg viewBox="0 0 20 20" id="facebook" xmlns="http://www.w3.org/2000/svg"><path d="M13.78 20v-7.74h2.59l.39-3h-3V7.33c0-.87.24-1.46 1.49-1.46h1.59v-2.7a19.91 19.91 0 00-2.32-.11 3.63 3.63 0 00-3.87 4v2.19H8.08v3h2.59V20H1.11a1.09 1.09 0 01-.78-.33 1.09 1.09 0 01-.33-.78V1.11A1.09 1.09 0 01.33.33 1.09 1.09 0 011.11 0h17.78a1.09 1.09 0 01.78.33 1.09 1.09 0 01.33.78v17.78A1.13 1.13 0 0118.89 20z"/></svg><svg viewBox="0 0 20.01 20.01" id="google" xmlns="http://www.w3.org/2000/svg"><path d="M1.09 5.51a10.05 10.05 0 013.76-4A10.3 10.3 0 0110.2 0 9.88 9.88 0 0117 2.61l-2.89 2.86A5.59 5.59 0 0010.2 4a6.09 6.09 0 00-5.71 4.1 5.76 5.76 0 000 3.8A6.09 6.09 0 0010.2 16a6.23 6.23 0 003.46-.95A4.46 4.46 0 0015 13.76a4.67 4.67 0 00.71-1.71H10.2V8.18h9.61a10.86 10.86 0 01.19 2.05 9.65 9.65 0 01-3 7.35A9.91 9.91 0 0110.2 20a10.42 10.42 0 01-3.9-.76A10.23 10.23 0 013 17.07a9.91 9.91 0 01-2.22-3.24 9.78 9.78 0 01.31-8.32z"/></svg><svg viewBox="0 0 26 26" id="instagram" xmlns="http://www.w3.org/2000/svg"><path d="M13 9.1a3.89 3.89 0 102.76 1.14A3.91 3.91 0 0013 9.1zm0-2.6a6.49 6.49 0 11-4.6 1.9A6.51 6.51 0 0113 6.5zm8.45-.32A1.64 1.64 0 1121 5a1.58 1.58 0 01.48 1.15zM13 2.6c-3.22 0-3.74 0-5.24.08a6.83 6.83 0 00-2.34.43A3.81 3.81 0 004 4a3.61 3.61 0 00-.91 1.4 6.83 6.83 0 00-.43 2.34C2.61 9.2 2.6 9.7 2.6 13s0 3.74.08 5.24a6.72 6.72 0 00.43 2.33A3.77 3.77 0 004 22a3.77 3.77 0 001.4.91 6.88 6.88 0 002.34.43c1.44.07 1.94.08 5.24.08s3.74 0 5.24-.08a6.77 6.77 0 002.33-.43A3.77 3.77 0 0022 22a3.65 3.65 0 00.91-1.4 6.88 6.88 0 00.43-2.34c.07-1.44.08-1.94.08-5.24s0-3.74-.08-5.24a6.88 6.88 0 00-.43-2.34A3.73 3.73 0 0022 4a3.61 3.61 0 00-1.4-.91 6.88 6.88 0 00-2.34-.43C16.8 2.61 16.3 2.6 13 2.6zM13 0c3.53 0 4 0 5.36.08a9.45 9.45 0 013.15.6 6.34 6.34 0 012.31 1.5 6.45 6.45 0 011.5 2.31 9.45 9.45 0 01.6 3.15C26 9 26 9.47 26 13s0 4-.08 5.36a9.45 9.45 0 01-.6 3.15 6.62 6.62 0 01-3.81 3.81 9.45 9.45 0 01-3.15.6C17 26 16.53 26 13 26s-4 0-5.36-.08a9.57 9.57 0 01-3.16-.6 6.5 6.5 0 01-2.3-1.5 6.45 6.45 0 01-1.5-2.31 9.45 9.45 0 01-.6-3.15C0 17 0 16.53 0 13s0-4 .08-5.36a9.45 9.45 0 01.6-3.15 6.45 6.45 0 011.5-2.31 6.5 6.5 0 012.3-1.5 9.57 9.57 0 013.16-.6C9 0 9.47 0 13 0z"/></svg><svg viewBox="0 0 106 106" id="okey" xmlns="http://www.w3.org/2000/svg"><g data-name="Слой 2"><g data-name="Слой 1"><path d="M53 1a52 52 0 1052 52A52 52 0 0053 1zM0 53a53 53 0 1153 53A53 53 0 010 53z"/><path d="M84.85 29a.5.5 0 010 .7L41.53 73a.49.49 0 01-.69 0L21.15 53.35a.48.48 0 010-.7.49.49 0 01.69 0L41.18 72l43-43a.49.49 0 01.67 0z"/></g></g></svg><svg viewBox="0 0 20 20" id="picture" xmlns="http://www.w3.org/2000/svg"><g data-name="Слой 2"><g data-name="Слой 1"><path d="M3 2a1 1 0 00-1 1v14a1 1 0 001 1h14a1 1 0 001-1V3a1 1 0 00-1-1zM0 3a3 3 0 013-3h14a3 3 0 013 3v14a3 3 0 01-3 3H3a3 3 0 01-3-3z"/><path d="M6.5 6a.5.5 0 10.5.5.5.5 0 00-.5-.5zM4 6.5A2.5 2.5 0 116.5 9 2.5 2.5 0 014 6.5zM13.36 7.23a1 1 0 011.36.07l4.39 4.5a1 1 0 11-1.43 1.4l-3.75-3.84-11.29 9.41a1 1 0 11-1.28-1.54z"/></g></g></svg><svg viewBox="0 0 121 91" id="quote" xmlns="http://www.w3.org/2000/svg"><g data-name="Слой 2"><path d="M10.74 83.16C3.75 75.88 0 67.71 0 54.48 0 31.19 16.67 10.32 40.92 0L47 9.17c-22.63 12-27.06 27.58-28.82 37.4a24.67 24.67 0 0113.07-2.07c12.24 1.11 21.89 11 21.89 23.21a23 23 0 01-7 16.47A24 24 0 0129.39 91a26.55 26.55 0 01-18.65-7.84zm67.86 0c-7-7.28-10.74-15.45-10.74-28.68 0-23.29 16.67-44.16 40.92-54.48l6.06 9.17c-22.63 12-27.06 27.58-28.84 37.4a24.67 24.67 0 0113.11-2.07c12.24 1.11 21.89 11 21.89 23.21a23 23 0 01-7 16.47A24 24 0 0197.25 91a26.55 26.55 0 01-18.65-7.84z" data-name="Слой 1"/></g></svg><svg viewBox="0 0 20 20" id="search" xmlns="http://www.w3.org/2000/svg"><path d="M9 2a7 7 0 107 7 7 7 0 00-7-7zM0 9a9 9 0 119 9 9 9 0 01-9-9z"/><path d="M13.94 13.94a1 1 0 011.42 0l4.35 4.35a1 1 0 01-1.42 1.42l-4.35-4.35a1 1 0 010-1.42z"/></svg><svg viewBox="0 0 20 16" id="twitter" xmlns="http://www.w3.org/2000/svg"><path d="M20 1.9a8 8 0 01-2.36.63A4 4 0 0019.45.3a8.41 8.41 0 01-2.61 1A4.15 4.15 0 0014.51.05a4.19 4.19 0 00-2.6.43 4.11 4.11 0 00-1.81 1.9A4 4 0 009.85 5a11.85 11.85 0 01-4.68-1.26 11.63 11.63 0 01-3.78-3 4 4 0 001.27 5.39 4.17 4.17 0 01-1.86-.5 4 4 0 00.93 2.56A4.16 4.16 0 004.1 9.64a4.32 4.32 0 01-1.86.07 4.07 4.07 0 001.46 2 4.13 4.13 0 002.37.79 8.1 8.1 0 01-2.86 1.43 8.5 8.5 0 01-3.21.26A11.83 11.83 0 006.29 16 11.5 11.5 0 0018 4.51v-.52a8.14 8.14 0 002-2.09z"/></svg><svg fill="none" viewBox="0 0 10 14" id="user-type-1" xmlns="http://www.w3.org/2000/svg"><path d="M5 8.583c1.933 0 3.5-1.641 3.5-3.666S6.933 1.25 5 1.25 1.5 2.892 1.5 4.917 3.067 8.583 5 8.583zM5 8.583v4.667" stroke="#677480" stroke-width="1.5" stroke-linecap="round" stroke-linejoin="round"/></svg></svg>