<svg xmlns="http://www.w3.org/2000/svg" viewBox="0 0 20.01 20.01"><path d="M1.09,5.51a10.05,10.05,0,0,1,3.76-4A10.3,10.3,0,0,1,10.2,0,9.88,9.88,0,0,1,17,2.61L14.11,5.47A5.59,5.59,0,0,0,10.2,4,6.09,6.09,0,0,0,4.49,8.1a5.76,5.76,0,0,0,0,3.8A6.09,6.09,0,0,0,10.2,16a6.23,6.23,0,0,0,3.46-.95A4.46,4.46,0,0,0,15,13.76a4.67,4.67,0,0,0,.71-1.71H10.2V8.18h9.61A10.86,10.86,0,0,1,20,10.23a9.65,9.65,0,0,1-3,7.35A9.91,9.91,0,0,1,10.2,20a10.42,10.42,0,0,1-3.9-.76A10.23,10.23,0,0,1,3,17.07,9.91,9.91,0,0,1,.78,13.83,9.78,9.78,0,0,1,1.09,5.51Z"/></svg>