<svg xmlns="http://www.w3.org/2000/svg" viewBox="0 0 20 16"><path d="M20,1.9a8,8,0,0,1-2.36.63A4,4,0,0,0,19.45.3a8.41,8.41,0,0,1-2.61,1A4.15,4.15,0,0,0,14.51.05a4.19,4.19,0,0,0-2.6.43,4.11,4.11,0,0,0-1.81,1.9A4,4,0,0,0,9.85,5,11.85,11.85,0,0,1,5.17,3.74a11.63,11.63,0,0,1-3.78-3A4,4,0,0,0,2.66,6.13,4.17,4.17,0,0,1,.8,5.63v0a4,4,0,0,0,.93,2.56A4.16,4.16,0,0,0,4.1,9.64a4.32,4.32,0,0,1-1.86.07,4.07,4.07,0,0,0,1.46,2,4.13,4.13,0,0,0,2.37.79,8.1,8.1,0,0,1-2.86,1.43A8.5,8.5,0,0,1,0,14.19,11.83,11.83,0,0,0,6.29,16,11.5,11.5,0,0,0,18,4.51c0-.17,0-.35,0-.52A8.14,8.14,0,0,0,20,1.9Z"/></svg>